M48
; DRILL file {KiCad (5.1.7-0-10_14)} date Monday, February 15, 2021 at 12:03:36 PM
; FORMAT={-:-/ absolute / metric / decimal}
; #@! TF.CreationDate,2021-02-15T12:03:36+01:00
; #@! TF.GenerationSoftware,Kicad,Pcbnew,(5.1.7-0-10_14)
FMAT,2
METRIC
T1C0.800
T2C0.900
T3C1.000
T4C1.520
%
G90
G05
T1
X4.445Y-37.465
X14.605Y-37.465
X4.445Y-20.955
X14.605Y-20.955
X4.445Y-17.78
X14.605Y-17.78
X4.445Y-34.29
X14.605Y-34.29
T2
X4.445Y-29.21
X14.605Y-29.21
X4.445Y-25.4
X14.605Y-25.4
T3
X6.477Y-8.97
X6.477Y-13.97
X6.985Y-4.445
X9.525Y-4.445
X12.065Y-4.445
X12.827Y-9.097
X12.827Y-14.097
T4
X7.493Y-43.815
X12.573Y-43.815
T0
M30
