%TF.GenerationSoftware,KiCad,Pcbnew,(5.1.7-0-10_14)*%
%TF.CreationDate,2021-02-15T14:43:33+01:00*%
%TF.ProjectId,Burden,42757264-656e-42e6-9b69-6361645f7063,rev?*%
%TF.SameCoordinates,PX9a6c788PY3b58df0*%
%TF.FileFunction,Copper,L1,Top*%
%TF.FilePolarity,Positive*%
%FSLAX46Y46*%
G04 Gerber Fmt 4.6, Leading zero omitted, Abs format (unit mm)*
G04 Created by KiCad (PCBNEW (5.1.7-0-10_14)) date 2021-02-15 14:43:33*
%MOMM*%
%LPD*%
G01*
G04 APERTURE LIST*
%TA.AperFunction,NonConductor*%
%ADD10C,0.250000*%
%TD*%
%TA.AperFunction,ComponentPad*%
%ADD11C,2.000000*%
%TD*%
%TA.AperFunction,ComponentPad*%
%ADD12C,3.000000*%
%TD*%
%TA.AperFunction,ComponentPad*%
%ADD13R,3.000000X3.000000*%
%TD*%
%TA.AperFunction,ComponentPad*%
%ADD14O,1.600000X1.600000*%
%TD*%
%TA.AperFunction,ComponentPad*%
%ADD15C,1.600000*%
%TD*%
%TA.AperFunction,ComponentPad*%
%ADD16O,1.800000X1.800000*%
%TD*%
%TA.AperFunction,ComponentPad*%
%ADD17R,1.800000X1.800000*%
%TD*%
%TA.AperFunction,ComponentPad*%
%ADD18O,1.700000X1.700000*%
%TD*%
%TA.AperFunction,ComponentPad*%
%ADD19R,1.700000X1.700000*%
%TD*%
G04 APERTURE END LIST*
D10*
X14374619Y-12136380D02*
X14946047Y-12136380D01*
X14660333Y-12136380D02*
X14660333Y-11136380D01*
X14755571Y-11279238D01*
X14850809Y-11374476D01*
X14946047Y-11422095D01*
X13517476Y-11136380D02*
X13707952Y-11136380D01*
X13803190Y-11184000D01*
X13850809Y-11231619D01*
X13946047Y-11374476D01*
X13993666Y-11564952D01*
X13993666Y-11945904D01*
X13946047Y-12041142D01*
X13898428Y-12088761D01*
X13803190Y-12136380D01*
X13612714Y-12136380D01*
X13517476Y-12088761D01*
X13469857Y-12041142D01*
X13422238Y-11945904D01*
X13422238Y-11707809D01*
X13469857Y-11612571D01*
X13517476Y-11564952D01*
X13612714Y-11517333D01*
X13803190Y-11517333D01*
X13898428Y-11564952D01*
X13946047Y-11612571D01*
X13993666Y-11707809D01*
X12803190Y-11136380D02*
X12707952Y-11136380D01*
X12612714Y-11184000D01*
X12565095Y-11231619D01*
X12517476Y-11326857D01*
X12469857Y-11517333D01*
X12469857Y-11755428D01*
X12517476Y-11945904D01*
X12565095Y-12041142D01*
X12612714Y-12088761D01*
X12707952Y-12136380D01*
X12803190Y-12136380D01*
X12898428Y-12088761D01*
X12946047Y-12041142D01*
X12993666Y-11945904D01*
X13041285Y-11755428D01*
X13041285Y-11517333D01*
X12993666Y-11326857D01*
X12946047Y-11231619D01*
X12898428Y-11184000D01*
X12803190Y-11136380D01*
X11612714Y-11469714D02*
X11612714Y-12136380D01*
X12041285Y-11469714D02*
X12041285Y-11993523D01*
X11993666Y-12088761D01*
X11898428Y-12136380D01*
X11755571Y-12136380D01*
X11660333Y-12088761D01*
X11612714Y-12041142D01*
X10803190Y-11612571D02*
X11136523Y-11612571D01*
X11136523Y-12136380D02*
X11136523Y-11136380D01*
X10660333Y-11136380D01*
X6341857Y-10977619D02*
X6294238Y-10930000D01*
X6199000Y-10882380D01*
X5960904Y-10882380D01*
X5865666Y-10930000D01*
X5818047Y-10977619D01*
X5770428Y-11072857D01*
X5770428Y-11168095D01*
X5818047Y-11310952D01*
X6389476Y-11882380D01*
X5770428Y-11882380D01*
X5151380Y-10882380D02*
X5056142Y-10882380D01*
X4960904Y-10930000D01*
X4913285Y-10977619D01*
X4865666Y-11072857D01*
X4818047Y-11263333D01*
X4818047Y-11501428D01*
X4865666Y-11691904D01*
X4913285Y-11787142D01*
X4960904Y-11834761D01*
X5056142Y-11882380D01*
X5151380Y-11882380D01*
X5246619Y-11834761D01*
X5294238Y-11787142D01*
X5341857Y-11691904D01*
X5389476Y-11501428D01*
X5389476Y-11263333D01*
X5341857Y-11072857D01*
X5294238Y-10977619D01*
X5246619Y-10930000D01*
X5151380Y-10882380D01*
X4389476Y-11215714D02*
X4389476Y-11882380D01*
X4389476Y-11310952D02*
X4341857Y-11263333D01*
X4246619Y-11215714D01*
X4103761Y-11215714D01*
X4008523Y-11263333D01*
X3960904Y-11358571D01*
X3960904Y-11882380D01*
X3151380Y-11358571D02*
X3484714Y-11358571D01*
X3484714Y-11882380D02*
X3484714Y-10882380D01*
X3008523Y-10882380D01*
X14090551Y-840860D02*
X13757218Y-1840860D01*
X13423884Y-840860D01*
X12519123Y-1745622D02*
X12566742Y-1793241D01*
X12709599Y-1840860D01*
X12804837Y-1840860D01*
X12947694Y-1793241D01*
X13042932Y-1698003D01*
X13090551Y-1602765D01*
X13138170Y-1412289D01*
X13138170Y-1269432D01*
X13090551Y-1078956D01*
X13042932Y-983718D01*
X12947694Y-888480D01*
X12804837Y-840860D01*
X12709599Y-840860D01*
X12566742Y-888480D01*
X12519123Y-936099D01*
X11519123Y-1745622D02*
X11566742Y-1793241D01*
X11709599Y-1840860D01*
X11804837Y-1840860D01*
X11947694Y-1793241D01*
X12042932Y-1698003D01*
X12090551Y-1602765D01*
X12138170Y-1412289D01*
X12138170Y-1269432D01*
X12090551Y-1078956D01*
X12042932Y-983718D01*
X11947694Y-888480D01*
X11804837Y-840860D01*
X11709599Y-840860D01*
X11566742Y-888480D01*
X11519123Y-936099D01*
X11042932Y-1793241D02*
X11042932Y-1840860D01*
X11090551Y-1936099D01*
X11138170Y-1983718D01*
X9328646Y-888480D02*
X9423884Y-840860D01*
X9566742Y-840860D01*
X9709599Y-888480D01*
X9804837Y-983718D01*
X9852456Y-1078956D01*
X9900075Y-1269432D01*
X9900075Y-1412289D01*
X9852456Y-1602765D01*
X9804837Y-1698003D01*
X9709599Y-1793241D01*
X9566742Y-1840860D01*
X9471503Y-1840860D01*
X9328646Y-1793241D01*
X9281027Y-1745622D01*
X9281027Y-1412289D01*
X9471503Y-1412289D01*
X8852456Y-1840860D02*
X8852456Y-840860D01*
X8281027Y-1840860D01*
X8281027Y-840860D01*
X7804837Y-1840860D02*
X7804837Y-840860D01*
X7566742Y-840860D01*
X7423884Y-888480D01*
X7328646Y-983718D01*
X7281027Y-1078956D01*
X7233408Y-1269432D01*
X7233408Y-1412289D01*
X7281027Y-1602765D01*
X7328646Y-1698003D01*
X7423884Y-1793241D01*
X7566742Y-1840860D01*
X7804837Y-1840860D01*
X6757218Y-1793241D02*
X6757218Y-1840860D01*
X6804837Y-1936099D01*
X6852456Y-1983718D01*
X5614361Y-1793241D02*
X5471503Y-1840860D01*
X5233408Y-1840860D01*
X5138170Y-1793241D01*
X5090551Y-1745622D01*
X5042932Y-1650384D01*
X5042932Y-1555146D01*
X5090551Y-1459908D01*
X5138170Y-1412289D01*
X5233408Y-1364670D01*
X5423884Y-1317051D01*
X5519123Y-1269432D01*
X5566742Y-1221813D01*
X5614361Y-1126575D01*
X5614361Y-1031337D01*
X5566742Y-936099D01*
X5519123Y-888480D01*
X5423884Y-840860D01*
X5185789Y-840860D01*
X5042932Y-888480D01*
D11*
%TO.P,20nF,2*%
%TO.N,/V_sense*%
X6477000Y-8970000D03*
%TO.P,20nF,1*%
%TO.N,GND*%
X6477000Y-13970000D03*
%TD*%
%TO.P,160uF,2*%
%TO.N,GND*%
X12827000Y-9097000D03*
%TO.P,160uF,1*%
%TO.N,Net-(C160uF1-Pad1)*%
X12827000Y-14097000D03*
%TD*%
D12*
%TO.P,J1,2*%
%TO.N,Net-(J1-Pad2)*%
X7493000Y-43815000D03*
D13*
%TO.P,J1,1*%
%TO.N,Net-(C160uF1-Pad1)*%
X12573000Y-43815000D03*
%TD*%
D14*
%TO.P,R4,2*%
%TO.N,/V_sense*%
X14605000Y-34290000D03*
D15*
%TO.P,R4,1*%
%TO.N,Net-(J1-Pad2)*%
X4445000Y-34290000D03*
%TD*%
D16*
%TO.P,D1,2*%
%TO.N,GND*%
X14605000Y-25400000D03*
D17*
%TO.P,D1,1*%
%TO.N,/V_sense*%
X4445000Y-25400000D03*
%TD*%
D16*
%TO.P,D0,2*%
%TO.N,/V_sense*%
X4445000Y-29210000D03*
D17*
%TO.P,D0,1*%
%TO.N,VCC*%
X14605000Y-29210000D03*
%TD*%
D14*
%TO.P,R2,2*%
%TO.N,Net-(C160uF1-Pad1)*%
X4445000Y-20955000D03*
D15*
%TO.P,R2,1*%
%TO.N,VCC*%
X14605000Y-20955000D03*
%TD*%
D14*
%TO.P,R1,2*%
%TO.N,GND*%
X14605000Y-17780000D03*
D15*
%TO.P,R1,1*%
%TO.N,Net-(C160uF1-Pad1)*%
X4445000Y-17780000D03*
%TD*%
D14*
%TO.P,R0,2*%
%TO.N,Net-(C160uF1-Pad1)*%
X14605000Y-37465000D03*
D15*
%TO.P,R0,1*%
%TO.N,Net-(J1-Pad2)*%
X4445000Y-37465000D03*
%TD*%
D18*
%TO.P,J2,3*%
%TO.N,VCC*%
X12065000Y-4445000D03*
%TO.P,J2,2*%
%TO.N,GND*%
X9525000Y-4445000D03*
D19*
%TO.P,J2,1*%
%TO.N,/V_sense*%
X6985000Y-4445000D03*
%TD*%
M02*
